<svg xmlns="http://www.w3.org/2000/svg" xmlns:xlink="http://www.w3.org/1999/xlink" width="500" zoomAndPan="magnify" viewBox="0 0 375 374.999991" height="500" preserveAspectRatio="xMidYMid meet" version="1.0"><defs><clipPath id="c0438054a2"><path d="M 80.472656 38.277344 L 337.722656 38.277344 L 337.722656 260.277344 L 80.472656 260.277344 Z M 80.472656 38.277344 " clip-rule="nonzero"/></clipPath><clipPath id="83349309e5"><path d="M 99.222656 38.277344 L 318.746094 38.277344 C 329.101562 38.277344 337.496094 46.671875 337.496094 57.023438 L 337.496094 241.316406 C 337.496094 251.671875 329.101562 260.066406 318.746094 260.066406 L 99.222656 260.066406 C 88.867188 260.066406 80.472656 251.671875 80.472656 241.316406 L 80.472656 57.023438 C 80.472656 46.671875 88.867188 38.277344 99.222656 38.277344 Z M 99.222656 38.277344 " clip-rule="nonzero"/></clipPath><clipPath id="451dee2ff8"><path d="M 37.503906 114.929688 L 294.75 114.929688 L 294.75 336.929688 L 37.503906 336.929688 Z M 37.503906 114.929688 " clip-rule="nonzero"/></clipPath><clipPath id="589d5ab420"><path d="M 56.253906 114.929688 L 275.773438 114.929688 C 286.128906 114.929688 294.523438 123.324219 294.523438 133.679688 L 294.523438 317.96875 C 294.523438 328.324219 286.128906 336.71875 275.773438 336.71875 L 56.253906 336.71875 C 45.898438 336.71875 37.503906 328.324219 37.503906 317.96875 L 37.503906 133.679688 C 37.503906 123.324219 45.898438 114.929688 56.253906 114.929688 Z M 56.253906 114.929688 " clip-rule="nonzero"/></clipPath><clipPath id="e70f9047c6"><path d="M 143.085938 149.171875 L 231.585938 149.171875 L 231.585938 225.671875 L 143.085938 225.671875 Z M 143.085938 149.171875 " clip-rule="nonzero"/></clipPath><clipPath id="d793b13982"><path d="M 161.835938 149.171875 L 213.164062 149.171875 C 223.519531 149.171875 231.914062 157.566406 231.914062 167.921875 L 231.914062 207.074219 C 231.914062 217.429688 223.519531 225.824219 213.164062 225.824219 L 161.835938 225.824219 C 151.480469 225.824219 143.085938 217.429688 143.085938 207.074219 L 143.085938 167.921875 C 143.085938 157.566406 151.480469 149.171875 161.835938 149.171875 Z M 161.835938 149.171875 " clip-rule="nonzero"/></clipPath></defs><g clip-path="url(#c0438054a2)"><g clip-path="url(#83349309e5)"><path stroke-linecap="butt" transform="matrix(0.75, 0, 0, 0.75, 80.474471, 38.275676)" fill="none" stroke-linejoin="miter" d="M 24.997583 0.00222328 L 317.695538 0.00222328 C 331.502831 0.00222328 342.695541 11.194933 342.695541 24.997018 L 342.695541 270.721008 C 342.695541 284.528302 331.502831 295.721012 317.695538 295.721012 L 24.997583 295.721012 C 11.19029 295.721012 -0.00241995 284.528302 -0.00241995 270.721008 L -0.00241995 24.997018 C -0.00241995 11.194933 11.19029 0.00222328 24.997583 0.00222328 Z M 24.997583 0.00222328 " stroke="#0768a9" stroke-width="20" stroke-opacity="1" stroke-miterlimit="4"/></g></g><g clip-path="url(#451dee2ff8)"><g clip-path="url(#589d5ab420)"><path stroke-linecap="butt" transform="matrix(0.75, 0, 0, 0.75, 37.502976, 114.929128)" fill="none" stroke-linejoin="miter" d="M 25.001244 0.000745396 L 317.69399 0.000745396 C 331.501284 0.000745396 342.693994 11.193455 342.693994 25.000749 L 342.693994 270.71953 C 342.693994 284.526824 331.501284 295.719534 317.69399 295.719534 L 25.001244 295.719534 C 11.193951 295.719534 0.00124082 284.526824 0.00124082 270.71953 L 0.00124082 25.000749 C 0.00124082 11.193455 11.193951 0.000745396 25.001244 0.000745396 Z M 25.001244 0.000745396 " stroke="#0768a9" stroke-width="20" stroke-opacity="1" stroke-miterlimit="4"/></g></g><g clip-path="url(#e70f9047c6)"><g clip-path="url(#d793b13982)"><path stroke-linecap="butt" transform="matrix(0.75, 0, 0, 0.75, 143.084863, 149.173627)" fill="none" stroke-linejoin="miter" d="M 25.001436 -0.00233601 L 93.438945 -0.00233601 C 107.246238 -0.00233601 118.438948 11.190374 118.438948 24.997667 L 118.438948 77.200799 C 118.438948 91.008092 107.246238 102.200802 93.438945 102.200802 L 25.001436 102.200802 C 11.194142 102.200802 0.00143253 91.008092 0.00143253 77.200799 L 0.00143253 24.997667 C 0.00143253 11.190374 11.194142 -0.00233601 25.001436 -0.00233601 Z M 25.001436 -0.00233601 " stroke="#0768a9" stroke-width="20" stroke-opacity="1" stroke-miterlimit="4"/></g></g></svg>